{"title":"Formula.1.2016x12.Germany.Race.SkyF1HD.1080p50","uid":15465398,"size":13367171095,"categoryP":"video","categoryS":"other","magnet":"?xt=urn:btih:ef3e3c3665bac83245753d7fea53e60c9004b88f&amp;dn=Formula.1.2016x12.Germany.Race.SkyF1HD.1080p50&amp;tr=udp%3A%2F%2Ftracker.leechers-paradise.org%3A6969&amp;tr=udp%3A%2F%2Fzer0day.ch%3A1337&amp;tr=udp%3A%2F%2Fopen.demonii.com%3A1337&amp;tr=udp%3A%2F%2Ftracker.coppersurfer.tk%3A6969&amp;tr=udp%3A%2F%2Fexodus.desync.com%3A6969","seeders":10,"leechers":3,"uploader":null,"files":3,"time":1470092777,"description":"Formula.1.2016x12.Germany.Race.SkyF1HD.1080p50-smcgill1969\r\n\r\n\r\nThe 2016 German Grand Prix at Hockenheim. Nico Rosberg was the winner the last time this event took place in 2014.\r\n\r\n Video\r\n ID : 1\r\n Format : AVC\r\n Format/Info : Advanced Video Codec\r\n Format profile :   \r\n Format settings, CABAC : Yes\r\n Format settings, ReFrames : 2 frames\r\n Format settings, GOP : M=3, N=24\r\n Codec ID : avc1\r\n Codec ID/Info : Advanced Video Coding\r\n Duration : 1h 25mn\r\n Duration_FirstFrame : 20ms\r\n Bit rate mode : Variable\r\n Bit rate : 5 998 Kbps\r\n Maximum bit rate : 12.4 Mbps\r\n Width : 1 920 pixels\r\n Height : 1 080 pixels\r\n Original height : 1 088 pixels\r\n Display aspect ratio : 16:9\r\n Original display aspect ratio : 16:9\r\n Frame rate mode : Constant\r\n Frame rate : 50.000 fps\r\n Color space : YUV\r\n Chroma subsampling : 4:2:0\r\n Bit depth : 8 bits\r\n Scan type : Progressive\r\n Bits/(Pixel*Frame) : 0.058\r\n Stream size : 3.56 GiB (96%)\r\n Language : English\r\n Encoded date : UTC 2016-07-31 10:27:54\r\n Tagged date : UTC 2016-07-31 11:55:15\r\n\r\n Audio\r\n ID : 2\r\n Format : AAC\r\n Format/Info : Advanced Audio Codec\r\n Format profile : LC\r\n Codec ID : 40\r\n Duration : 1h 25mn\r\n Bit rate mode : Constant\r\n Bit rate : 256 Kbps\r\n Channel(s) : 2 channels\r\n Channel positions : Front: L R\r\n Sampling rate : 48.0 KHz\r\n Frame rate : 46.875 fps (1024 spf)\r\n Compression mode : Lossy\r\n Stream size : 154 MiB (4%)\r\n Language : English\r\n Encoded date : UTC 2016-07-31 10:27:54\r\n Tagged date : UTC 2016-07-31 11:55:15","torrent":{"xt":"urn:btih:ef3e3c3665bac83245753d7fea53e60c9004b88f","amp;dn":"Formula.1.2016x12.Germany.Race.SkyF1HD.1080p50","amp;tr":["udp%3A%2F%2Ftracker.leechers-paradise.org%3A6969","udp%3A%2F%2Fzer0day.ch%3A1337","udp%3A%2F%2Fopen.demonii.com%3A1337","udp%3A%2F%2Ftracker.coppersurfer.tk%3A6969","udp%3A%2F%2Fexodus.desync.com%3A6969"],"infoHash":"ef3e3c3665bac83245753d7fea53e60c9004b88f","infoHashBuffer":{"type":"Buffer","data":[239,62,60,54,101,186,200,50,69,117,61,127,234,83,230,12,144,4,184,143]},"announce":[],"urlList":[]}}